<svg xmlns:xlink="http://www.w3.org/1999/xlink" width="64" height="64">
  <g clip-path="url(#c)" transform="matrix(1.00976 0 0 1.0255 0 -1.632)">
    <g id="b" stroke-width=".025">
      <path fill="#9e541d" d="M48.615 20.501c-1.253-7.618 8.7-14.87 13.114-8.196 1.552 2.348 1.92 5.272 1.458 8.138-.69 4.282-5.686 5.444-9.104 6.23l-5.468-6.172"/>
      <path fill="#722618" d="M51.732 19.077c-.194.063-.194.198-.412.15.129-3.63 3-5.094 5.747-5.601 3.744-.691 4.944 4.227 2.676 7.166-2.042 2.645-4.943 2.07-7.574 1.2l-.437-2.915"/>
      <path fill="#9e541d" d="M15.438 10.135C13.964 3.091 8.387-1.11 2.833 3.58-.222 6.16-.895 10.553 1.248 14.175c2.231 3.775 6.447 4.233 9.804 2.906l4.386-6.946"/>
      <path fill="#722618" d="M12.947 12.22c-.35-3.989-3.43-7.655-7.035-7.064-3.53.579-3.58 6.554-1.181 8.624 1.981 1.71 3.682 2.3 6.03 1.183l2.186-2.743"/>
      <path fill="#9e541d" d="M5.594 20.784C10.71 4.997 22.363 3.306 30.89 4.997c8.242 1.128 23.02 5.638 25.863 23.683 6.2 35.877-24.821 38.3-34.93 33.44-5.397-2.594-11.456-7.632-15.362-15.824-3.37-7.07-3.538-17.267-.866-25.512"/>
      <path fill="#c27036" d="M13.254 35.732c3.145-9.707 10.31-10.747 15.553-9.707 5.067.694 14.154 3.467 15.902 14.562 3.812 22.06-15.261 23.549-21.477 20.561-3.319-1.595-7.044-4.693-9.446-9.73-2.072-4.346-2.175-10.617-.532-15.686"/>
      <path fill="#722618" d="M24.9 39.78c-1.04 1.639-.114 3.967 1.3 4.64 1.865.889 4.965.574 6.207-1.506.57-.956.612-1.956.132-2.99-1.223-2.635-6.202-2.407-7.638-.143"/>
      <path fill="#211d1d" d="M43.11 21.72c1.387-.445 2.667 1.355 1.834 2.818-1.454 2.553-4.702-1.896-1.834-2.817M19.707 21.724c-.427 1.658-2.549 1.762-3.332.413-.77-1.325.027-3.108 1.374-2.944 1.085.131 2.34 1.046 1.958 2.531"/>
      <path fill="#722618" d="M27.929 44.707c-.019 1.651-.135 3.297-.168 4.948-.039 1.888-.027 3.762-.469 5.595-.192.8.863 1.138 1.055.342.397-1.645.464-3.332.493-5.032.034-1.953.16-3.9.182-5.853.01-.83-1.083-.829-1.093 0"/>
      <path fill="#722618" d="M17.847 51.176c.899.554 1.528 1.456 2.319 2.177.747.681 1.593 1.185 2.456 1.627 1.84.941 3.856 1.369 5.847 1.55 2.143.195 4.24-.39 6.344-.79 2.228-.422 4.368-1.773 6.332-3.021.62-.394.069-1.504-.552-1.11-3.592 2.282-7.575 3.822-11.711 3.662a14.581 14.581 0 01-6.024-1.564c-.862-.44-1.715-1.005-2.41-1.751-.651-.699-1.261-1.405-2.049-1.89-.623-.385-1.176.725-.552 1.11"/>
    </g>
  </g>
</svg>