<svg xmlns:xlink="http://www.w3.org/1999/xlink" width="64" height="64">
      <g clip-path="url(#c)" transform="matrix(.0278 0 0 -.03044 -365.289 273.757)">
        <g id="a" clip-path="url(#d)">
          <g id="b">
            <path
              fill="#f35c8c"
              d="M13595.395 8986.683c-133.46 21.45-235.39-180.09-299.36-269.44-50.46-70.49-228.47-270.7-123.8-353.12 80.46-63.36 283.18 6.8 360.84 46.32 118.27 60.19 251.26 144.26 311.12 267.97 65.14 134.6-118.95 287.41-248.8 308.27M14900.955 8586.112c-58.34-121.93 106.1-276.74 173.69-363.39 53.32-68.34 194.95-295.75 303.64-218.69 83.54 59.23 73.63 273.52 57.71 359.2-24.25 130.46-67.24 281.81-168.94 374.25-110.66 100.57-309.33-32.74-366.1-151.37"
            ></path>
            <path
              fill="#f795b1"
              d="M13341.015 8291.983c195.08 512.01 639.43 566.88 964.56 512.01 314.3-36.57 877.86-182.86 986.26-768.08 236.38-1163.62-946.51-1242.17-1332-1084.58-205.82 84.14-436.87 247.54-585.8 513.23-128.52 229.27-134.9 560.02-33.02 827.42"
            ></path>
            <path
              fill="#f35c8c"
              d="M13774.455 7607.733c213.1-78.76 253.56-291.49 368.92-452.15 50.17-69.86 108.32-80.82 163.3-17.01 92.91 107.83 133.68 255.15 285 305.71l-817.22 163.45"
            ></path>
            <path
              fill="#fac2d4"
              d="M14043.265 7460.563c188.42-45.18 433.85-56.93 627.13-38.73 256.48 24.16 406.37 238.9 249.15 473.23-135.87 202.5-445.37 265.35-673.74 276.14-158.01 7.47-430.36 20.99-527.87-129.89-68.37-105.79-89.59-308.9-28.33-421.97 36.75-67.84 59.44-59.4 125.58-77.15 77.44-20.77 150.15-62.94 228.08-81.63"
            ></path>
            <path
              fill="#ee1e85"
              d="M14560.995 7779.033c-23.03-79.77 187.7-97.24 202.63-16.49 13.9 75.25-182.17 87.36-202.63 16.49M13825.525 7866.703c-21.89-79.76 178.51-97.24 192.7-16.48 13.23 75.24-173.24 87.35-192.7 16.48"
            ></path>
            <path
              fill="#3c3b3e"
              d="M14737.175 8303.972c62.7 57.06 176.01 17.17 220.59-44.81 15.56-21.62 51.75-.83 36.01 21.05-60.77 84.49-201.97 129.79-286.08 53.25-19.93-18.14 9.64-47.54 29.48-29.49M14029.455 8435.483c-56.58 82.02-233.9 131.85-310.6 53.25-18.79-19.25 10.68-48.76 29.49-29.49 56.22 57.62 203.68 15.24 245.1-44.81 15.16-21.97 51.32-1.15 36.01 21.05"
            ></path>
          </g>
        </g>
      </g>
    </svg>